<?xml version="1.0" encoding="UTF-8"?>
<svg viewBox="0 0 684 632" xmlns="http://www.w3.org/2000/svg" role="img" aria-labelledby="05-spectrum-display-title 05-spectrum-display-desc">
<title id="05-spectrum-display-title">Spectrum, waterfall, and panadapter display</title>
<desc id="05-spectrum-display-desc">Architecture diagram showing display.cs rendering the panadapter and waterfall from FFT data pulled through clsSpectrumProcessor, hosted by PanDisplay, alongside wideband display and external spectrum streaming.</desc>
<defs>
<style>@import url('https://fonts.googleapis.com/css2?family=Instrument+Serif:ital@0;1&amp;family=Geist:wght@400;500;600&amp;family=Geist+Mono:wght@400;500;600&amp;display=swap');</style>
  <marker id="arrow" markerWidth="8" markerHeight="6" refX="7" refY="3" orient="auto"><polygon points="0 0, 8 3, 0 6" fill="#4f5d75"/></marker>
  <marker id="arrow-accent" markerWidth="8" markerHeight="6" refX="7" refY="3" orient="auto"><polygon points="0 0, 8 3, 0 6" fill="#eb6c36"/></marker>
  <marker id="arrow-link" markerWidth="8" markerHeight="6" refX="7" refY="3" orient="auto"><polygon points="0 0, 8 3, 0 6" fill="#2e5aa8"/></marker>
</defs>
<rect width="100%" height="100%" fill="#f5f5f5"/>
<path d="M 444,94 H 294.0 Q 302.0,94 302.0,86 V 80.0 Q 302.0,72.0 310.0,72.0 H 240" fill="none" stroke="#2e5aa8" stroke-width="1.2" marker-end="url(#arrow-link)"/>
<path d="M 444,182 H 310.0 Q 318.0,182 318.0,174 V 168.0 Q 318.0,160.0 326.0,160.0 H 240" fill="none" stroke="#4f5d75" stroke-width="1.2" marker-end="url(#arrow)"/>
<path d="M 240,248.0 H 326.0 Q 334.0,248.0 334.0,256.0 V 262 Q 334.0,270 342.0,270 H 444" fill="none" stroke="#4f5d75" stroke-width="1.2" marker-end="url(#arrow)"/>
<path d="M 240,336.0 H 342.0 Q 350.0,336.0 350.0,328.0 V 322 Q 350.0,314 358.0,314 H 444" fill="none" stroke="#4f5d75" stroke-width="1.2" marker-end="url(#arrow)"/>
<path d="M 240,424.0 H 358.0 Q 366.0,424.0 366.0,416.0 V 410 Q 366.0,402 374.0,402 H 444" fill="none" stroke="#4f5d75" stroke-width="1.2" marker-end="url(#arrow)"/>
<path d="M 240,512.0 H 374.0 Q 382.0,512.0 382.0,504.0 V 498 Q 382.0,490 390.0,490 H 444" fill="none" stroke="#4f5d75" stroke-width="1.2" marker-end="url(#arrow)"/>
<rect x="314.0" y="91.0" width="56" height="12" rx="2" fill="#f5f5f5"/>
<text x="342.0" y="100.0" fill="#2e5aa8" font-size="8" font-family="'Geist Mono', monospace" text-anchor="middle" letter-spacing="0.06em">FFT DATA</text>
<rect x="323.0" y="179.0" width="38" height="12" rx="2" fill="#f5f5f5"/>
<text x="342.0" y="188.0" fill="#4f5d75" font-size="8" font-family="'Geist Mono', monospace" text-anchor="middle" letter-spacing="0.06em">HOSTS</text>
<rect x="317.0" y="267.0" width="50" height="12" rx="2" fill="#f5f5f5"/>
<text x="342.0" y="276.0" fill="#4f5d75" font-size="8" font-family="'Geist Mono', monospace" text-anchor="middle" letter-spacing="0.06em">RENDERS</text>
<rect x="317.0" y="333.0" width="50" height="12" rx="2" fill="#f5f5f5"/>
<text x="342.0" y="342.0" fill="#4f5d75" font-size="8" font-family="'Geist Mono', monospace" text-anchor="middle" letter-spacing="0.06em">RENDERS</text>
<rect x="317.0" y="421.0" width="50" height="12" rx="2" fill="#f5f5f5"/>
<text x="342.0" y="430.0" fill="#4f5d75" font-size="8" font-family="'Geist Mono', monospace" text-anchor="middle" letter-spacing="0.06em">STREAMS</text>
<rect x="323.0" y="509.0" width="38" height="12" rx="2" fill="#f5f5f5"/>
<text x="342.0" y="518.0" fill="#4f5d75" font-size="8" font-family="'Geist Mono', monospace" text-anchor="middle" letter-spacing="0.06em">SHOWS</text>
<rect x="40" y="40" width="200" height="504" rx="6" fill="#f5f5f5"/>
<rect x="40" y="40" width="200" height="504" rx="6" fill="rgba(235,108,54,0.08)" stroke="#eb6c36" stroke-width="1"/>
<rect x="48" y="48" width="28" height="12" rx="2" fill="transparent" stroke="rgba(235,108,54,0.50)" stroke-width="0.8"/>
<text x="62.0" y="57" fill="#eb6c36" font-size="7" font-family="'Geist Mono', monospace" text-anchor="middle" letter-spacing="0.08em">HUB</text>
<text x="140.0" y="290.0" fill="#2d3142" font-size="12" font-weight="600" font-family="'Geist', sans-serif" text-anchor="middle">display.cs</text>
<text x="140.0" y="306.0" fill="#4f5d75" font-size="9" font-family="'Geist Mono', monospace" text-anchor="middle">spectrum/waterfall renderer · hub</text>
<rect x="444" y="40" width="200" height="64" rx="6" fill="#f5f5f5"/>
<rect x="444" y="40" width="200" height="64" rx="6" fill="rgba(45,49,66,0.03)" stroke="rgba(45,49,66,0.30)" stroke-width="1" stroke-dasharray="4,3"/>
<rect x="452" y="48" width="28" height="12" rx="2" fill="transparent" stroke="rgba(45,49,66,0.22)" stroke-width="0.8"/>
<text x="466.0" y="57" fill="#7a8399" font-size="7" font-family="'Geist Mono', monospace" text-anchor="middle" letter-spacing="0.08em">DSP</text>
<text x="544.0" y="70.0" fill="#2d3142" font-size="12" font-weight="600" font-family="'Geist', sans-serif" text-anchor="middle">clsSpectrumProcessor.cs</text>
<text x="544.0" y="86.0" fill="#4f5d75" font-size="9" font-family="'Geist Mono', monospace" text-anchor="middle">pulls FFT data from wdsp (§7)</text>
<rect x="444" y="128" width="200" height="64" rx="6" fill="#f5f5f5"/>
<rect x="444" y="128" width="200" height="64" rx="6" fill="#ffffff" stroke="#2d3142" stroke-width="1"/>
<rect x="452" y="136" width="24" height="12" rx="2" fill="transparent" stroke="rgba(45,49,66,0.40)" stroke-width="0.8"/>
<text x="464.0" y="145" fill="#2d3142" font-size="7" font-family="'Geist Mono', monospace" text-anchor="middle" letter-spacing="0.08em">UI</text>
<text x="544.0" y="158.0" fill="#2d3142" font-size="12" font-weight="600" font-family="'Geist', sans-serif" text-anchor="middle">PanDisplay.cs</text>
<text x="544.0" y="174.0" fill="#4f5d75" font-size="9" font-family="'Geist Mono', monospace" text-anchor="middle">render surface · mouse tuning</text>
<rect x="444" y="216" width="200" height="64" rx="6" fill="#f5f5f5"/>
<rect x="444" y="216" width="200" height="64" rx="6" fill="#ffffff" stroke="#2d3142" stroke-width="1"/>
<rect x="452" y="224" width="24" height="12" rx="2" fill="transparent" stroke="rgba(45,49,66,0.40)" stroke-width="0.8"/>
<text x="464.0" y="233" fill="#2d3142" font-size="7" font-family="'Geist Mono', monospace" text-anchor="middle" letter-spacing="0.08em">UI</text>
<text x="544.0" y="246.0" fill="#2d3142" font-size="12" font-weight="600" font-family="'Geist', sans-serif" text-anchor="middle">wbDisplay.cs · wideband.cs</text>
<text x="544.0" y="262.0" fill="#4f5d75" font-size="9" font-family="'Geist Mono', monospace" text-anchor="middle">0–61 MHz wideband view</text>
<rect x="444" y="304" width="200" height="64" rx="6" fill="#f5f5f5"/>
<rect x="444" y="304" width="200" height="64" rx="6" fill="#ffffff" stroke="#2d3142" stroke-width="1"/>
<rect x="452" y="312" width="24" height="12" rx="2" fill="transparent" stroke="rgba(45,49,66,0.40)" stroke-width="0.8"/>
<text x="464.0" y="321" fill="#2d3142" font-size="7" font-family="'Geist Mono', monospace" text-anchor="middle" letter-spacing="0.08em">UI</text>
<text x="544.0" y="334.0" fill="#2d3142" font-size="12" font-weight="600" font-family="'Geist', sans-serif" text-anchor="middle">Path_Illustrator.cs</text>
<text x="544.0" y="350.0" fill="#4f5d75" font-size="9" font-family="'Geist Mono', monospace" text-anchor="middle">interactive signal-path diagram</text>
<rect x="444" y="392" width="200" height="64" rx="6" fill="#f5f5f5"/>
<rect x="444" y="392" width="200" height="64" rx="6" fill="rgba(45,49,66,0.03)" stroke="rgba(45,49,66,0.30)" stroke-width="1" stroke-dasharray="4,3"/>
<rect x="452" y="400" width="28" height="12" rx="2" fill="transparent" stroke="rgba(45,49,66,0.22)" stroke-width="0.8"/>
<text x="466.0" y="409" fill="#7a8399" font-size="7" font-family="'Geist Mono', monospace" text-anchor="middle" letter-spacing="0.08em">NET</text>
<text x="544.0" y="422.0" fill="#2d3142" font-size="12" font-weight="600" font-family="'Geist', sans-serif" text-anchor="middle">N1MM.cs</text>
<text x="544.0" y="438.0" fill="#4f5d75" font-size="9" font-family="'Geist Mono', monospace" text-anchor="middle">UDP spectrum stream out</text>
<rect x="444" y="480" width="200" height="64" rx="6" fill="#f5f5f5"/>
<rect x="444" y="480" width="200" height="64" rx="6" fill="#ffffff" stroke="#2d3142" stroke-width="1"/>
<rect x="452" y="488" width="28" height="12" rx="2" fill="transparent" stroke="rgba(45,49,66,0.40)" stroke-width="0.8"/>
<text x="466.0" y="497" fill="#2d3142" font-size="7" font-family="'Geist Mono', monospace" text-anchor="middle" letter-spacing="0.08em">DBG</text>
<text x="544.0" y="510.0" fill="#2d3142" font-size="12" font-weight="600" font-family="'Geist', sans-serif" text-anchor="middle">ucVARGrapher · flow warning</text>
<text x="544.0" y="526.0" fill="#4f5d75" font-size="9" font-family="'Geist Mono', monospace" text-anchor="middle">diagnostics widgets</text>
<line x1="40" y1="568" x2="960" y2="568" stroke="rgba(45,49,66,0.10)" stroke-width="0.8"/>
<text x="40" y="584" fill="#4f5d75" font-size="8" font-family="'Geist Mono', monospace" letter-spacing="0.18em">LEGEND</text>
<rect x="40" y="596" width="14" height="10" rx="2" fill="rgba(235,108,54,0.08)" stroke="#eb6c36" stroke-width="1"/>
<text x="60" y="604" fill="#4f5d75" font-size="8.5" font-family="'Geist', sans-serif">Focal / hub</text>
<rect x="139" y="596" width="14" height="10" rx="2" fill="#ffffff" stroke="#2d3142" stroke-width="1"/>
<text x="159" y="604" fill="#4f5d75" font-size="8.5" font-family="'Geist', sans-serif">Component</text>
<rect x="228" y="596" width="14" height="10" rx="2" fill="rgba(45,49,66,0.05)" stroke="#4f5d75" stroke-width="1"/>
<text x="248" y="604" fill="#4f5d75" font-size="8.5" font-family="'Geist', sans-serif">Store</text>
<rect x="297" y="596" width="14" height="10" rx="2" fill="rgba(45,49,66,0.03)" stroke="rgba(45,49,66,0.30)" stroke-width="1" stroke-dasharray="4,3"/>
<text x="317" y="604" fill="#4f5d75" font-size="8.5" font-family="'Geist', sans-serif">External / other section</text>
</svg>
