<?xml version="1.0" encoding="UTF-8"?>
<svg viewBox="0 0 708 720" xmlns="http://www.w3.org/2000/svg" role="img" aria-labelledby="06-dsp-control-title 06-dsp-control-desc">
<title id="06-dsp-control-title">DSP control from the console</title>
<desc id="06-dsp-control-desc">Architecture diagram showing dsp.cs pushing every DSP parameter from RX chain, filter, EQ, and TX processing controls down through cmaster.cs into wdsp.</desc>
<defs>
<style>@import url('https://fonts.googleapis.com/css2?family=Instrument+Serif:ital@0;1&amp;family=Geist:wght@400;500;600&amp;family=Geist+Mono:wght@400;500;600&amp;display=swap');</style>
  <marker id="arrow" markerWidth="8" markerHeight="6" refX="7" refY="3" orient="auto"><polygon points="0 0, 8 3, 0 6" fill="#4f5d75"/></marker>
  <marker id="arrow-accent" markerWidth="8" markerHeight="6" refX="7" refY="3" orient="auto"><polygon points="0 0, 8 3, 0 6" fill="#eb6c36"/></marker>
  <marker id="arrow-link" markerWidth="8" markerHeight="6" refX="7" refY="3" orient="auto"><polygon points="0 0, 8 3, 0 6" fill="#2e5aa8"/></marker>
</defs>
<rect width="100%" height="100%" fill="#f5f5f5"/>
<path d="M 240,72.0 H 298.0 Q 306.0,72.0 306.0,80.0 V 86 Q 306.0,94 314.0,94 H 468" fill="none" stroke="#4f5d75" stroke-width="1.2" marker-end="url(#arrow)"/>
<path d="M 240,160.0 H 314.0 Q 322.0,160.0 322.0,168.0 V 174 Q 322.0,182 330.0,182 H 468" fill="none" stroke="#4f5d75" stroke-width="1.2" marker-end="url(#arrow)"/>
<path d="M 240,248.0 H 330.0 Q 338.0,248.0 338.0,256.0 V 262 Q 338.0,270 346.0,270 H 468" fill="none" stroke="#4f5d75" stroke-width="1.2" marker-end="url(#arrow)"/>
<line x1="240" y1="336.0" x2="468" y2="336.0" stroke="#4f5d75" stroke-width="1.2" marker-end="url(#arrow)"/>
<path d="M 240,424.0 H 362.0 Q 370.0,424.0 370.0,416.0 V 410 Q 370.0,402 378.0,402 H 468" fill="none" stroke="#4f5d75" stroke-width="1.2" marker-end="url(#arrow)"/>
<path d="M 240,512.0 H 378.0 Q 386.0,512.0 386.0,504.0 V 498 Q 386.0,490 394.0,490 H 468" fill="none" stroke="#4f5d75" stroke-width="1.2" marker-end="url(#arrow)"/>
<path d="M 240,600.0 H 394.0 Q 402.0,600.0 402.0,592.0 V 586 Q 402.0,578 410.0,578 H 468" fill="none" stroke="#2e5aa8" stroke-width="1.2" marker-end="url(#arrow-link)"/>
<rect x="338.0" y="91.0" width="32" height="12" rx="2" fill="#f5f5f5"/>
<text x="354.0" y="100.0" fill="#4f5d75" font-size="8" font-family="'Geist Mono', monospace" text-anchor="middle" letter-spacing="0.06em">SETS</text>
<rect x="338.0" y="179.0" width="32" height="12" rx="2" fill="#f5f5f5"/>
<text x="354.0" y="188.0" fill="#4f5d75" font-size="8" font-family="'Geist Mono', monospace" text-anchor="middle" letter-spacing="0.06em">SETS</text>
<rect x="338.0" y="267.0" width="32" height="12" rx="2" fill="#f5f5f5"/>
<text x="354.0" y="276.0" fill="#4f5d75" font-size="8" font-family="'Geist Mono', monospace" text-anchor="middle" letter-spacing="0.06em">SETS</text>
<rect x="338.0" y="316.0" width="32" height="12" rx="2" fill="#f5f5f5"/>
<text x="354.0" y="325.0" fill="#4f5d75" font-size="8" font-family="'Geist Mono', monospace" text-anchor="middle" letter-spacing="0.06em">SETS</text>
<rect x="338.0" y="421.0" width="32" height="12" rx="2" fill="#f5f5f5"/>
<text x="354.0" y="430.0" fill="#4f5d75" font-size="8" font-family="'Geist Mono', monospace" text-anchor="middle" letter-spacing="0.06em">SETS</text>
<rect x="338.0" y="509.0" width="32" height="12" rx="2" fill="#f5f5f5"/>
<text x="354.0" y="518.0" fill="#4f5d75" font-size="8" font-family="'Geist Mono', monospace" text-anchor="middle" letter-spacing="0.06em">SETS</text>
<rect x="326.0" y="597.0" width="56" height="12" rx="2" fill="#f5f5f5"/>
<text x="354.0" y="606.0" fill="#2e5aa8" font-size="8" font-family="'Geist Mono', monospace" text-anchor="middle" letter-spacing="0.06em">P/INVOKE</text>
<rect x="40" y="40" width="200" height="592" rx="6" fill="#f5f5f5"/>
<rect x="40" y="40" width="200" height="592" rx="6" fill="rgba(235,108,54,0.08)" stroke="#eb6c36" stroke-width="1"/>
<rect x="48" y="48" width="28" height="12" rx="2" fill="transparent" stroke="rgba(235,108,54,0.50)" stroke-width="0.8"/>
<text x="62.0" y="57" fill="#eb6c36" font-size="7" font-family="'Geist Mono', monospace" text-anchor="middle" letter-spacing="0.08em">HUB</text>
<text x="140.0" y="334.0" fill="#2d3142" font-size="12" font-weight="600" font-family="'Geist', sans-serif" text-anchor="middle">dsp.cs</text>
<text x="140.0" y="350.0" fill="#4f5d75" font-size="9" font-family="'Geist Mono', monospace" text-anchor="middle">DSP settings hub</text>
<rect x="468" y="40" width="200" height="64" rx="6" fill="#f5f5f5"/>
<rect x="468" y="40" width="200" height="64" rx="6" fill="#ffffff" stroke="#2d3142" stroke-width="1"/>
<rect x="476" y="48" width="24" height="12" rx="2" fill="transparent" stroke="rgba(45,49,66,0.40)" stroke-width="0.8"/>
<text x="488.0" y="57" fill="#2d3142" font-size="7" font-family="'Geist Mono', monospace" text-anchor="middle" letter-spacing="0.08em">RX</text>
<text x="568.0" y="70.0" fill="#2d3142" font-size="12" font-weight="600" font-family="'Geist', sans-serif" text-anchor="middle">rxa.cs · rxaControls.cs</text>
<text x="568.0" y="86.0" fill="#4f5d75" font-size="9" font-family="'Geist Mono', monospace" text-anchor="middle">RXA chain settings</text>
<rect x="468" y="128" width="200" height="64" rx="6" fill="#f5f5f5"/>
<rect x="468" y="128" width="200" height="64" rx="6" fill="#ffffff" stroke="#2d3142" stroke-width="1"/>
<rect x="476" y="136" width="28" height="12" rx="2" fill="transparent" stroke="rgba(45,49,66,0.40)" stroke-width="0.8"/>
<text x="490.0" y="145" fill="#2d3142" font-size="7" font-family="'Geist Mono', monospace" text-anchor="middle" letter-spacing="0.08em">FLT</text>
<text x="568.0" y="158.0" fill="#2d3142" font-size="12" font-weight="600" font-family="'Geist', sans-serif" text-anchor="middle">Filter, notch UI</text>
<text x="568.0" y="174.0" fill="#4f5d75" font-size="9" font-family="'Geist Mono', monospace" text-anchor="middle">filter.cs · frmNotchPopup</text>
<rect x="468" y="216" width="200" height="64" rx="6" fill="#f5f5f5"/>
<rect x="468" y="216" width="200" height="64" rx="6" fill="#ffffff" stroke="#2d3142" stroke-width="1"/>
<rect x="476" y="224" width="28" height="12" rx="2" fill="transparent" stroke="rgba(45,49,66,0.40)" stroke-width="0.8"/>
<text x="490.0" y="233" fill="#2d3142" font-size="7" font-family="'Geist Mono', monospace" text-anchor="middle" letter-spacing="0.08em">FLT</text>
<text x="568.0" y="246.0" fill="#2d3142" font-size="12" font-weight="600" font-family="'Geist', sans-serif" text-anchor="middle">frmBandwidth · ucBandwidthView</text>
<text x="568.0" y="262.0" fill="#4f5d75" font-size="9" font-family="'Geist Mono', monospace" text-anchor="middle">bandwidth adjust popup</text>
<rect x="468" y="304" width="200" height="64" rx="6" fill="#f5f5f5"/>
<rect x="468" y="304" width="200" height="64" rx="6" fill="#ffffff" stroke="#2d3142" stroke-width="1"/>
<rect x="476" y="312" width="24" height="12" rx="2" fill="transparent" stroke="rgba(45,49,66,0.40)" stroke-width="0.8"/>
<text x="488.0" y="321" fill="#2d3142" font-size="7" font-family="'Geist Mono', monospace" text-anchor="middle" letter-spacing="0.08em">EQ</text>
<text x="568.0" y="334.0" fill="#2d3142" font-size="12" font-weight="600" font-family="'Geist', sans-serif" text-anchor="middle">eqform.cs · ucParametricEq.cs</text>
<text x="568.0" y="350.0" fill="#4f5d75" font-size="9" font-family="'Geist Mono', monospace" text-anchor="middle">graphic/parametric EQ</text>
<rect x="468" y="392" width="200" height="64" rx="6" fill="#f5f5f5"/>
<rect x="468" y="392" width="200" height="64" rx="6" fill="#ffffff" stroke="#2d3142" stroke-width="1"/>
<rect x="476" y="400" width="24" height="12" rx="2" fill="transparent" stroke="rgba(45,49,66,0.40)" stroke-width="0.8"/>
<text x="488.0" y="409" fill="#2d3142" font-size="7" font-family="'Geist Mono', monospace" text-anchor="middle" letter-spacing="0.08em">TX</text>
<text x="568.0" y="422.0" fill="#2d3142" font-size="12" font-weight="600" font-family="'Geist', sans-serif" text-anchor="middle">frmCFCConfig · PSForm · AmpView</text>
<text x="568.0" y="438.0" fill="#4f5d75" font-size="9" font-family="'Geist Mono', monospace" text-anchor="middle">CFC · PureSignal TX</text>
<rect x="468" y="480" width="200" height="64" rx="6" fill="#f5f5f5"/>
<rect x="468" y="480" width="200" height="64" rx="6" fill="#ffffff" stroke="#2d3142" stroke-width="1"/>
<rect x="476" y="488" width="24" height="12" rx="2" fill="transparent" stroke="rgba(45,49,66,0.40)" stroke-width="0.8"/>
<text x="488.0" y="497" fill="#2d3142" font-size="7" font-family="'Geist Mono', monospace" text-anchor="middle" letter-spacing="0.08em">RX</text>
<text x="568.0" y="510.0" fill="#2d3142" font-size="12" font-weight="600" font-family="'Geist', sans-serif" text-anchor="middle">DiversityForm.cs</text>
<text x="568.0" y="526.0" fill="#4f5d75" font-size="9" font-family="'Geist Mono', monospace" text-anchor="middle">RX1/RX2 diversity mixing</text>
<rect x="468" y="568" width="200" height="64" rx="6" fill="#f5f5f5"/>
<rect x="468" y="568" width="200" height="64" rx="6" fill="rgba(45,49,66,0.03)" stroke="rgba(45,49,66,0.30)" stroke-width="1" stroke-dasharray="4,3"/>
<rect x="476" y="576" width="28" height="12" rx="2" fill="transparent" stroke="rgba(45,49,66,0.22)" stroke-width="0.8"/>
<text x="490.0" y="585" fill="#7a8399" font-size="7" font-family="'Geist Mono', monospace" text-anchor="middle" letter-spacing="0.08em">EXT</text>
<text x="568.0" y="598.0" fill="#2d3142" font-size="12" font-weight="600" font-family="'Geist', sans-serif" text-anchor="middle">cmaster.cs</text>
<text x="568.0" y="614.0" fill="#4f5d75" font-size="9" font-family="'Geist Mono', monospace" text-anchor="middle">→ ChannelMaster (§8)</text>
<line x1="40" y1="656" x2="960" y2="656" stroke="rgba(45,49,66,0.10)" stroke-width="0.8"/>
<text x="40" y="672" fill="#4f5d75" font-size="8" font-family="'Geist Mono', monospace" letter-spacing="0.18em">LEGEND</text>
<rect x="40" y="684" width="14" height="10" rx="2" fill="rgba(235,108,54,0.08)" stroke="#eb6c36" stroke-width="1"/>
<text x="60" y="692" fill="#4f5d75" font-size="8.5" font-family="'Geist', sans-serif">Focal / hub</text>
<rect x="139" y="684" width="14" height="10" rx="2" fill="#ffffff" stroke="#2d3142" stroke-width="1"/>
<text x="159" y="692" fill="#4f5d75" font-size="8.5" font-family="'Geist', sans-serif">Component</text>
<rect x="228" y="684" width="14" height="10" rx="2" fill="rgba(45,49,66,0.05)" stroke="#4f5d75" stroke-width="1"/>
<text x="248" y="692" fill="#4f5d75" font-size="8.5" font-family="'Geist', sans-serif">Store</text>
<rect x="297" y="684" width="14" height="10" rx="2" fill="rgba(45,49,66,0.03)" stroke="rgba(45,49,66,0.30)" stroke-width="1" stroke-dasharray="4,3"/>
<text x="317" y="692" fill="#4f5d75" font-size="8.5" font-family="'Geist', sans-serif">External / other section</text>
</svg>
