<?xml version="1.0" encoding="UTF-8"?>
<svg viewBox="0 0 800 448" xmlns="http://www.w3.org/2000/svg" role="img" aria-labelledby="10-cat-control-title 10-cat-control-desc">
<title id="10-cat-control-title">CAT control and external program interfaces</title>
<desc id="10-cat-control-desc">Architecture diagram showing serial and TCP CAT transports feeding CATParser, which dispatches into CATCommands, alongside the parallel TCI WebSocket server and PTT/band-decoder inputs.</desc>
<defs>
<style>@import url('https://fonts.googleapis.com/css2?family=Instrument+Serif:ital@0;1&amp;family=Geist:wght@400;500;600&amp;family=Geist+Mono:wght@400;500;600&amp;display=swap');</style>
  <marker id="arrow" markerWidth="8" markerHeight="6" refX="7" refY="3" orient="auto"><polygon points="0 0, 8 3, 0 6" fill="#4f5d75"/></marker>
  <marker id="arrow-accent" markerWidth="8" markerHeight="6" refX="7" refY="3" orient="auto"><polygon points="0 0, 8 3, 0 6" fill="#eb6c36"/></marker>
  <marker id="arrow-link" markerWidth="8" markerHeight="6" refX="7" refY="3" orient="auto"><polygon points="0 0, 8 3, 0 6" fill="#2e5aa8"/></marker>
</defs>
<rect width="100%" height="100%" fill="#f5f5f5"/>
<line x1="240" y1="94" x2="300" y2="94" stroke="#4f5d75" stroke-width="1.2" marker-end="url(#arrow)"/>
<line x1="240" y1="138" x2="300" y2="138" stroke="#4f5d75" stroke-width="1.2" marker-end="url(#arrow)"/>
<line x1="480" y1="116.0" x2="560" y2="116.0" stroke="#eb6c36" stroke-width="1.4" marker-end="url(#arrow-accent)"/>
<path d="M 480,210 H 512.0 Q 520.0,210 520.0,202 V 146 Q 520.0,138 528.0,138 H 560" fill="none" stroke="#4f5d75" stroke-width="1" stroke-dasharray="4,3" marker-end="url(#arrow)"/>
<path d="M 660.0,148 V 200" fill="none" stroke="#4f5d75" stroke-width="1.2" marker-end="url(#arrow)"/>
<path d="M 500,306 H 522.0 Q 530.0,306 530.0,298 V 106 Q 530.0,98 538.0,98 H 560" fill="none" stroke="#2e5aa8" stroke-width="1.2" marker-end="url(#arrow-link)"/>
<rect x="258.0" y="74.0" width="24" height="12" rx="2" fill="#f5f5f5"/>
<text x="270.0" y="83.0" fill="#4f5d75" font-size="8" font-family="'Geist Mono', monospace" text-anchor="middle" letter-spacing="0.06em">RX</text>
<rect x="258.0" y="118.0" width="24" height="12" rx="2" fill="#f5f5f5"/>
<text x="270.0" y="127.0" fill="#4f5d75" font-size="8" font-family="'Geist Mono', monospace" text-anchor="middle" letter-spacing="0.06em">RX</text>
<rect x="492.0" y="96.0" width="56" height="12" rx="2" fill="#f5f5f5"/>
<text x="520.0" y="105.0" fill="#eb6c36" font-size="8" font-family="'Geist Mono', monospace" text-anchor="middle" letter-spacing="0.06em">DISPATCH</text>
<rect x="507.0" y="182.0" width="26" height="12" rx="2" fill="#f5f5f5"/>
<text x="520.0" y="191.0" fill="#4f5d75" font-size="8" font-family="'Geist Mono', monospace" text-anchor="middle" letter-spacing="0.06em">PTT</text>
<rect x="674.0" y="168.0" width="38" height="12" rx="2" fill="#f5f5f5"/>
<text x="693.0" y="177.0" fill="#4f5d75" font-size="8" font-family="'Geist Mono', monospace" text-anchor="middle" letter-spacing="0.06em">QUEUE</text>
<rect x="517.0" y="210.0" width="26" height="12" rx="2" fill="#f5f5f5"/>
<text x="530.0" y="219.0" fill="#2e5aa8" font-size="8" font-family="'Geist Mono', monospace" text-anchor="middle" letter-spacing="0.06em">TCI</text>
<rect x="40" y="40" width="200" height="64" rx="6" fill="#f5f5f5"/>
<rect x="40" y="40" width="200" height="64" rx="6" fill="rgba(79,93,117,0.10)" stroke="#7a8399" stroke-width="1"/>
<rect x="48" y="48" width="28" height="12" rx="2" fill="transparent" stroke="rgba(122,131,153,0.40)" stroke-width="0.8"/>
<text x="62.0" y="57" fill="#7a8399" font-size="7" font-family="'Geist Mono', monospace" text-anchor="middle" letter-spacing="0.08em">SIO</text>
<text x="140.0" y="70.0" fill="#2d3142" font-size="12" font-weight="600" font-family="'Geist', sans-serif" text-anchor="middle">Serial transport</text>
<text x="140.0" y="86.0" fill="#4f5d75" font-size="9" font-family="'Geist Mono', monospace" text-anchor="middle">SDRSerialPortII · SIOListenerII</text>
<rect x="40" y="128" width="200" height="64" rx="6" fill="#f5f5f5"/>
<rect x="40" y="128" width="200" height="64" rx="6" fill="rgba(79,93,117,0.10)" stroke="#7a8399" stroke-width="1"/>
<rect x="48" y="136" width="28" height="12" rx="2" fill="transparent" stroke="rgba(122,131,153,0.40)" stroke-width="0.8"/>
<text x="62.0" y="145" fill="#7a8399" font-size="7" font-family="'Geist Mono', monospace" text-anchor="middle" letter-spacing="0.08em">NET</text>
<text x="140.0" y="158.0" fill="#2d3142" font-size="12" font-weight="600" font-family="'Geist', sans-serif" text-anchor="middle">TCPIPcatServer.cs</text>
<text x="140.0" y="174.0" fill="#4f5d75" font-size="9" font-family="'Geist Mono', monospace" text-anchor="middle">CAT over TCP/IP</text>
<rect x="300" y="84" width="180" height="64" rx="6" fill="#f5f5f5"/>
<rect x="300" y="84" width="180" height="64" rx="6" fill="#ffffff" stroke="#2d3142" stroke-width="1"/>
<rect x="308" y="92" width="28" height="12" rx="2" fill="transparent" stroke="rgba(45,49,66,0.40)" stroke-width="0.8"/>
<text x="322.0" y="101" fill="#2d3142" font-size="7" font-family="'Geist Mono', monospace" text-anchor="middle" letter-spacing="0.08em">PRS</text>
<text x="390.0" y="114.0" fill="#2d3142" font-size="12" font-weight="600" font-family="'Geist', sans-serif" text-anchor="middle">CATParser.cs</text>
<text x="390.0" y="130.0" fill="#4f5d75" font-size="9" font-family="'Geist Mono', monospace" text-anchor="middle">tokenize · validate</text>
<rect x="560" y="84" width="200" height="64" rx="6" fill="#f5f5f5"/>
<rect x="560" y="84" width="200" height="64" rx="6" fill="rgba(235,108,54,0.08)" stroke="#eb6c36" stroke-width="1"/>
<rect x="568" y="92" width="28" height="12" rx="2" fill="transparent" stroke="rgba(235,108,54,0.50)" stroke-width="0.8"/>
<text x="582.0" y="101" fill="#eb6c36" font-size="7" font-family="'Geist Mono', monospace" text-anchor="middle" letter-spacing="0.08em">HUB</text>
<text x="660.0" y="114.0" fill="#2d3142" font-size="12" font-weight="600" font-family="'Geist', sans-serif" text-anchor="middle">CATCommands.cs</text>
<text x="660.0" y="130.0" fill="#4f5d75" font-size="9" font-family="'Geist Mono', monospace" text-anchor="middle">ZZxx + Kenwood set · hub</text>
<rect x="300" y="200" width="180" height="64" rx="6" fill="#f5f5f5"/>
<rect x="300" y="200" width="180" height="64" rx="6" fill="rgba(79,93,117,0.10)" stroke="#7a8399" stroke-width="1"/>
<rect x="308" y="208" width="28" height="12" rx="2" fill="transparent" stroke="rgba(122,131,153,0.40)" stroke-width="0.8"/>
<text x="322.0" y="217" fill="#7a8399" font-size="7" font-family="'Geist Mono', monospace" text-anchor="middle" letter-spacing="0.08em">PTT</text>
<text x="390.0" y="230.0" fill="#2d3142" font-size="12" font-weight="600" font-family="'Geist', sans-serif" text-anchor="middle">PTT &amp; band-decoder</text>
<text x="390.0" y="246.0" fill="#4f5d75" font-size="9" font-family="'Geist Mono', monospace" text-anchor="middle">SerialPortPTT · UsbBCDCable</text>
<rect x="560" y="200" width="200" height="56" rx="6" fill="#f5f5f5"/>
<rect x="560" y="200" width="200" height="56" rx="6" fill="rgba(45,49,66,0.05)" stroke="#4f5d75" stroke-width="1"/>
<rect x="568" y="208" width="24" height="12" rx="2" fill="transparent" stroke="rgba(79,93,117,0.50)" stroke-width="0.8"/>
<text x="580.0" y="217" fill="#4f5d75" font-size="7" font-family="'Geist Mono', monospace" text-anchor="middle" letter-spacing="0.08em">Q</text>
<text x="660.0" y="226.0" fill="#2d3142" font-size="12" font-weight="600" font-family="'Geist', sans-serif" text-anchor="middle">CAT queueing</text>
<text x="660.0" y="242.0" fill="#4f5d75" font-size="9" font-family="'Geist Mono', monospace" text-anchor="middle">clsCATMessageQueue · atonic</text>
<rect x="300" y="296" width="200" height="64" rx="6" fill="#f5f5f5"/>
<rect x="300" y="296" width="200" height="64" rx="6" fill="rgba(45,49,66,0.03)" stroke="rgba(45,49,66,0.30)" stroke-width="1" stroke-dasharray="4,3"/>
<rect x="308" y="304" width="24" height="12" rx="2" fill="transparent" stroke="rgba(45,49,66,0.22)" stroke-width="0.8"/>
<text x="320.0" y="313" fill="#7a8399" font-size="7" font-family="'Geist Mono', monospace" text-anchor="middle" letter-spacing="0.08em">WS</text>
<text x="400.0" y="326.0" fill="#2d3142" font-size="12" font-weight="600" font-family="'Geist', sans-serif" text-anchor="middle">TCIServer.cs</text>
<text x="400.0" y="342.0" fill="#4f5d75" font-size="9" font-family="'Geist Mono', monospace" text-anchor="middle">TCI WebSocket (parallel)</text>
<line x1="40" y1="384" x2="960" y2="384" stroke="rgba(45,49,66,0.10)" stroke-width="0.8"/>
<text x="40" y="400" fill="#4f5d75" font-size="8" font-family="'Geist Mono', monospace" letter-spacing="0.18em">LEGEND</text>
<rect x="40" y="412" width="14" height="10" rx="2" fill="rgba(235,108,54,0.08)" stroke="#eb6c36" stroke-width="1"/>
<text x="60" y="420" fill="#4f5d75" font-size="8.5" font-family="'Geist', sans-serif">Focal / hub</text>
<rect x="139" y="412" width="14" height="10" rx="2" fill="#ffffff" stroke="#2d3142" stroke-width="1"/>
<text x="159" y="420" fill="#4f5d75" font-size="8.5" font-family="'Geist', sans-serif">Component</text>
<rect x="228" y="412" width="14" height="10" rx="2" fill="rgba(79,93,117,0.10)" stroke="#7a8399" stroke-width="1"/>
<text x="248" y="420" fill="#4f5d75" font-size="8.5" font-family="'Geist', sans-serif">Transport / input</text>
<rect x="357" y="412" width="14" height="10" rx="2" fill="rgba(45,49,66,0.03)" stroke="rgba(45,49,66,0.30)" stroke-width="1" stroke-dasharray="4,3"/>
<text x="377" y="420" fill="#4f5d75" font-size="8.5" font-family="'Geist', sans-serif">External / parallel protocol</text>
</svg>
